<?xml version="1.0" encoding="UTF-8"?>
<svg id="Layer_2" data-name="Layer 2" xmlns="http://www.w3.org/2000/svg" viewBox="0 0 890.07 718.14">
  <defs>
    <style>
      .cls-1 {
        fill: #0f0f0f;
      }
    </style>
  </defs>
  <g id="Layer_1-2" data-name="Layer 1">
    <g>
      <path class="cls-1" d="M131.79,148.03c-14.38,16.82-26.02,36.29-35.01,56.49,4.92,1.3,9.97,2.29,14.69,4.33,27.7,12,29.88,46.45,27.31,72.67-.36,3.72-1.89,17.33-3.19,19.81-1.52,2.9-5.2,1.87-7.51.4-15.21-18.78-31.03-37.44-36.82-61.66l-2.45-16.03-10.72,32.65c10.78,26.45,11,56.33-2.12,82.01-2.66,5.2-13.88,22.32-18.59,24.4-11.14,4.92-6.13-12.05-6.59-18.55-.9-12.76-7.21-25.98-7.97-39.03-1.21-20.73,9.09-35.33,25.76-46.22l5.22-25.27c-12.7,11.28-28.55,18.51-44.47,24.02-5.04,1.74-19.63,6.87-24.06,7.04-3.22.12-6.02-1.63-5.06-5.09.86-3.1,8.48-5.89,11.26-8.31,22.7-19.75,29.28-69.07,72.61-55.66,1.34.42,1.13,2.48,2.24,2.99h1.48s28.01-47.99,28.01-47.99c-4.49.08-9,1.78-13.46,2.03-10.36.6-23.66.02-34.03-1.05-4.13-.43-18.4-1.65-20.03-4.99-3.07-6.28,5.85-5.94,9.51-7.51,15.17-6.5,25.22-22.09,42.79-24.21,12.62-1.52,23.48,1.17,33.16,9.33,1.16.98.61,3,2.53,2.37,11.38-12.99,24.14-24.64,37.53-35.48-15.93-2.24-31.7-8.43-47.62-10.37-3.2-.39-8.84-1.05-11.88-1.12-3.37-.08-12.56,3.69-13.52-1.52-.25-1.35-.19-3.29.53-4.48,1.52-2.53,28.29-17.06,32.51-18.48,21.63-7.24,47.92,1.12,60.08,20.4l1.23-.04c26.34-15.29,53.81-29.4,81.98-41.08,13.44-5.57,27.77-11.87,42.12-13.83l.61,2.56-111.05,55.96,11.02,9.96c11.81,14.19,13.07,32.29,8.68,49.73-.62,2.46-6.93,20.04-7.87,20.62-1.26.78-5.12.31-6.41-.76-13.01-19.01-33.63-38.86-28.44-64.07-7.97,5.65-15.81,11.88-23,18.49-2.35,2.15-17.47,16.82-17.98,18.03-.68,1.65,4.85,3.18,6.49,4.49,20.31,16.26,24.95,51.08,20.25,75.24-.85,4.38-.93,8.95-6.18,8.71-2.72-.13-14.75-11.32-16.98-14.03-5.56-6.75-16.58-27.03-16.58-35.42v-22.5ZM171.43,65.42c-13.73-5.52-24.45-6.01-38.32-.57-1.2.47-14.41,6.4-12.31,8.18l62.49,11c9.98-1.87-11.58-9.27-13.98-10-8.6-2.64-17.48-4.51-26.52-3.99-1.21-3.76,3.16-3.81,6.47-4.04,11.29-.79,22.95,1.76,32.84,7.27,1.56.87,1.71,2.94,2.2,2.77.69-.99,2.04-.93.85-2.02-5.35-4.94-6.65-4.31-12.58-7.04-.78-.36-.93-1.46-1.13-1.54ZM214.81,147.02c2.43,1.74,5.18-9.26,5.54-10.94,4.47-20.99.07-45.89-24.55-49.05-1.77,1.77,7.67,14.55,9.17,17.32,2.18,4.06,8.9,18.06,7.73,22.02-.68,2.32-3.84,2.27-4.8.05l-13.23-30.27-2.87-.13c-2.71,20.86,12.58,35.17,23.01,51ZM123.79,125.04c-.47-.57-12.57-3.02-14.47-3.07-13.86-.39-30.86,9.12-40.06,19.02-.91.98-1.83,1.42-1.46,3.03,15.24.53,32.83,3.17,47.53-1.96,4.56-1.59,13.02-5.88,13.98-11.01-14.72,6.12-31.96,11.89-48,8.94-1.27-.23-3.13-.27-1.51-1.95.76-.79,14.17-1.71,17.2-2.31,5.22-1.04,11.51-2.76,16.58-4.42,1.6-.52,9.87-2.89,10.22-3.3.09-.11.1-2.86,0-2.97ZM138.8,148.03c-2.3,17.78,4.43,38.61,16.02,52.47,2.52,3.01,9.23,11.53,10.02,4.08,2.03-19.04-1.01-46.34-16.58-59.52-.89-.75-5.78-4.73-6.47-4.02,4.94,11.34,11.71,22.44,13.55,34.94.49,3.35,2.13,12.08-2.04,13.05-1.98-.46-8.68-28.74-10.5-33.51-.9-2.38-1.76-6.13-4.01-7.48ZM75.79,203.01c.2-4.61-6.32-2.56-9.21-1.7-10.27,3.07-19.65,14.93-25.6,23.4l-16.18,26.31c21.79-6.2,47.26-16.79,56.17-39.32.36-.91,3.76-9.08.34-7.67-1.48.61-11.86,11.36-14.5,13.5-5.98,4.86-19.35,15.32-25.96,18.04-1.3.53-3.45,1.44-3.04-1.03l37.98-31.53ZM94.8,218.03c1.24,28.16,16.78,51.36,34.49,71.97,3.08.02,3.79-28.31,3.54-31.52-1.6-20.01-13.28-38.05-33.03-43.46,3.82,8.07,9.32,15.25,13.16,23.33,2.36,4.95,14.02,34.68,10.83,37.67l-3.83-.18c-7.67-17.98-12.76-38.98-22.68-55.85-.76-1.29.18-2.52-2.48-1.97ZM61.77,345.02c.51-.45,5.96-10.25,6.73-11.78,9.2-18.51,11.81-42.17,5.62-62.04-.46-1.48-.34-3.15-1.84-4.16-2.18-.28-2.01,5.06-2.3,6.67-3.47,18.83-3.64,38.22-4.19,57.32-1.13-.14-2.23.57-3.08-.59-.61-.82-1.93-14.51-1.95-16.86-.17-14.07,3.02-27.75,5.04-41.55-.91-1.01-5.26,3.9-5.89,4.83-13.04,19.46-2.45,45.54-.14,66.71-.54,1.63,1.35,2.03,2.01,1.45ZM66.29,270.03v1c.65-.33.65-.67,0-1Z"/>
      <path class="cls-1" d="M726.8,89.03l35.62,35.94c2.06.62,6.44-4.41,8.85-5.97,9.59-6.19,20.71-7.21,31.75-4.7,14.95,3.4,25.08,17.09,38.78,23.22,4.01,1.79,12.12,1.34,9.88,7.87-.41,1.2-1.32,1.29-2.28,1.74-3.27,1.51-21.54,3.6-26.11,3.89-13.05.82-26.64.18-39.5-1.48l28.11,47.39c3.61,1.07,2.35-1.98,5.41-2.88,35.85-10.56,46.06,23.44,62.07,44.89,1.59,2.13,9.73,10.09,9.99,10.99.98,3.49.21,7.5.42,11.09-15.5-3.03-30.58-8.76-44.67-15.82l-18.32-11.17c2.82,5.7,2.58,19.75,4.99,24.26.54,1.02,13.65,9.32,17.42,14.83,17.06,24.91,3.33,42.57.7,67.51-.45,4.26,1.8,20.08-1.75,21.3-5.59,1.92-14.32-10.45-17.17-14.59-19.47-28.31-20.77-61.01-9.14-92.78l-10.06-31.54c-1.25.11-2.08-.91-1.72,1.28,2.74,16.47-13.22,44.53-22.86,57.64-2.98,4.04-12.04,15.65-15.47,18.52s-6.16,1.46-7.48-2.39c-1.51-4.41-3.14-19.34-3.45-24.55-1.84-30.52,5.3-67.18,41.99-69.49,3.19-2.94-28.93-53.41-34.99-58,3.73,22.67-5.24,48.84-22,64.51-11.39,10.65-15.1,12.5-17.74-4.28-3.92-24.89.46-56.71,21.81-72.66,2.35-1.76,5.41-.85,3.42-4.57-1.35-2.52-9.22-10.06-11.85-12.65-8.13-8.02-18.39-15.61-27.64-22.35,5.15,25.25-15.35,44.38-27.98,63.52-6.06,5.36-8.61-2.9-10.51-7.54-8.45-20.63-10.21-44.08,4.54-62.2l10.93-9.27-108.96-57.05c-.22-1.28-.17-2.2.95-3,3.1-2.23,36.17,11.94,41.69,14.36,27.11,11.9,53.35,26.43,79.05,41.05,2.55.38,6.4-5.81,8.75-7.9,18.77-16.67,42.05-18.25,64.2-7.15,3.1,1.55,19.44,11.28,20.9,13.1,1.36,1.68,2.58,5.18.48,6.64-1.17.82-23.5.84-28.44,1.56-14.08,2.06-28.2,8.28-42.61,8.89ZM777.79,71.02c1.53-1.44-6.32-5.69-7.31-6.18-15.25-7.46-32.28-6.22-47.38.98l-7.29,6.2c7.57-2.38,13.35-6.27,21.51-6.98,3.8-.33,13.57-.63,16.98,0,1.71.31,2.81,1.07,2.5,2.99-12.95.51-30.76,3.4-41.69,10.81-5.7,3.86.92,4.35,5.04,4.09,18.56-1.15,38.66-11.03,57.65-11.9ZM684.77,146.02c9.1-14.68,25.15-29.63,23.07-48.54-.11-1-.48-3.47-1.55-3.43-1.13.05-6.47,10.7-7.36,12.62-1.85,4-5.71,17.3-7.63,19.37-1.46,1.58-3.73,1.44-4.39-.68-.94-3.01,3.47-14.3,5.02-17.69,1.76-3.85,12.06-18.61,11.94-20.13-.49-5.99-14.15,3.2-16.58,5.49-11.49,10.83-11.8,37.03-5.57,50.57.68,1.47,1,2.83,3.05,2.42ZM831.79,142.02c.38-1.67-.54-2.02-1.51-2.98-12.75-12.4-28.4-20.84-46.74-17.78-1.17.19-9.58,2.82-7.73,4.75.62.65,14.78,4.94,16.99,5.52,8.86,2.33,17.85,3.89,27,4.5,4.26,3.58-13.37,3.1-14.54,3.04-11.61-.64-22.53-4.52-33.46-8.03,1.81,4.47,7.22,7.28,11.58,8.91,14.59,5.44,33.13,2.84,48.41,2.08ZM756.79,140.03c-1.88-.43-2.37,1.06-3.5,1.99-18.43,15.2-20.55,42.88-17.49,65,.99,1.16,7.63-5.96,8.51-6.98,10.44-12.1,16.52-29.61,17.48-45.52.07-1.12.78-11.3-1.98-8.49l-12.04,40.99c-7.27,4.8-1.92-18.35-1.26-20.77,2.49-9.06,7.79-17.18,10.27-26.22ZM847.38,208.48c-5.57-5.17-12.06-10.06-20.1-9.45-1.49.11-2.9-.77-2.48,1.49,7.77,7.26,15.56,14.7,23.76,21.47,3.12,2.58,8.83,5.55,11.59,8.18,6.53,6.23-2.18,2.74-5.67.67-13.23-7.84-24.91-18.47-36.2-28.8-1.6-.15-1.68-.23-1.37,1.36,5.16,25.92,35.77,39.82,58.88,45.63l-18.16-28.33c-3.61-3.87-6.38-8.64-10.25-12.22ZM799.79,213.03c-32.9,11.36-35.59,44.9-29.99,74.99,1.07,1.24,7.02-6.37,7.97-7.52,12.58-15.39,25.12-37.96,27.01-57.99.11-1.13.61-9.1-1.97-6.48l-21.91,57.4h-4.12c-1.35-9.9,7.12-30.01,11.63-39.28,1.28-2.63,12.2-20.24,11.37-21.12ZM826.29,232.03v1c.65-.33.65-.67,0-1ZM834.8,329.03c-1.59-19.81-.58-40.08-4.93-59.58-.35-1.58.28-3.27-1.58-4.4-10.95,25.27-5.04,58.29,12.49,78.98,1.62-25.52,16.4-56.26-6.98-76,.05,5.9,3,12,3.9,17.59,1.71,10.72,2.63,30.13.82,40.67-.48,2.76-.81,3.11-3.72,2.74Z"/>
      <path class="cls-1" d="M132.79,562.53c1.44-12.1,10.73-29.08,18.97-38.03,17.86-19.4,20.84-12.04,22.07,10.99,1.23,23.17-4.92,52.98-26.98,64.63-1.62,2.35,15.15,17.53,17.74,19.86,3.98,3.58,9.15,8.22,13.29,11.47.94.73,8.41,6.14,8.91,5.58-3.32-15.19,4.44-28.85,12.37-41.13,3.34-5.17,10.74-16.2,14.64-20.36,7.91-8.45,11.08,3.48,13.47,10.51,8.21,24.13,6.82,53.81-18.47,66.47l64.99,34.02c.25,1.02-.79,2.16-1.63,2.41-6.15,1.8-44.7-14.52-52.39-18.4-3.63-1.83-21.36-13.18-22.66-13.39-.98-.15-11.23,11.17-14.38,13.3-28.55,19.29-54.77,6.3-79.92-10.94-4.28-11.33,8.35-6.39,14.5-6.41,18.31-.07,39.2-9.05,57.48-11.57l-36.7-34.4c-6.29,2.6-10.02,7.35-17.3,9.4-28.47,8.02-36.06-8.06-56.31-19.69-3.17-1.82-14.32-4.79-14.79-5.42-4.67-6.34,4.75-7.64,8.73-8.26,19.08-2.96,40.6-5,59.37-.13l-22.17-34.32-6.84-14.67c-2.53-.77-2.16,2.43-3.74,2.98-41.83,14.5-51.22-35.98-74.76-55.96-3.77-3.2-12.41-5.31-8.55-11.35,2.03-3.18,15.41,2.04,18.84,3.06,13.26,3.97,26.34,8.97,38.54,15.46l14.69,9.8-4.49-24c-20.31-12.38-28.87-29.32-25.23-53.21,1.59-10.47,6.06-20.57,6.71-31.29.24-3.96-1.36-15.01-.84-16.77,2.62-8.9,12.18,1.75,14.82,4.82,23.57,27.28,27.27,66.09,13.99,98.99l10.06,31.48c2.98-1.77,1.69-7.08,2.26-10.22,4.73-26.03,21.1-47.5,38.17-66.82,3.03-1.94,5.9-1.46,7.09,2.01,1.39,4.05,3.12,16.9,3.45,21.55,1.81,25.26-.92,58.36-27.31,69.66-4.86,2.08-8.67,2.36-13.19,3.8-1.26.4-1.63-.76-1.53,1.55s7.04,14.37,8.69,17.32c7.46,13.32,16.24,26.7,26.35,38.15.61-7.15-.83-15.52,0-22.5ZM61.77,388.04l-1.98.5c-1.53,25.07-16.29,55.16,6.99,74.5-3.58-17.92-6.88-36.99-4.87-55.39.34-3.13.51-5.51,3.88-4.61,1.36,18.78,1.23,37.61,4.28,56.23l2.71,8.77c9.98-27.38,4.7-56.06-11.01-79.98ZM130.79,444.03c-1.76-.35-2.47.91-3.51,1.98-8.93,9.22-20.13,27.14-24.95,39.05-2.91,7.19-7.53,22.01-6.54,29.48.18,1.36.6,3,2,1.49l21.8-56.72c.97-3.09,4.88-3.28,5.24.2.37,3.61-4.93,20.18-6.54,24.5-2.31,6.18-5.84,13.18-8.96,19.04-1.32,2.48-9.89,14.48-8.52,15.97,32.12-11.76,37.02-44.93,29.99-74.99ZM83.79,529.02c-4.91-26.63-34.2-40.11-57.99-45.99-.31,1.57.17,2.3.96,3.53,8.59,13.47,26.15,42.44,41.98,46.02.96.22,9.21,1.72,8.05-1.04-.64-1.52-17.92-16.34-20.52-18.49-4.52-3.74-11.56-7.71-15.48-11.51-2.24-2.17-3.46-4.21.47-3.47,2.7.51,20.09,12.94,23.47,15.54,4.44,3.42,8.41,7.91,12.61,11.39.9.75,5.79,4.75,6.47,4.02ZM139.79,567.53c-.65,5.8.48,12.58,0,18.5,1.43-.03,1.97-2.84,2.46-4.04,4.63-11.32,5.75-24.47,9.8-35.2.47-1.23,1.26-1.97,2.26-2.75,5.04-1.09,1.31,15.56.81,17.82-.88,3.98-2.41,8.33-3.84,12.16-2.32,6.21-5.76,12-8.48,18.01,1.22,1.23,8.39-5.73,9.51-6.98,12.14-13.65,14.71-34.89,13.54-52.56-.09-1.37-.24-8.43-2.53-7.44-1.7.73-9.44,9.97-10.92,12.08-5.2,7.42-11.59,21.49-12.59,30.41ZM218.79,586.02c-.98-.04-1.81-.11-2.76.32-1.31.59-14.49,19.63-16.04,22.38-4.15,7.4-8.26,16.12-7.24,24.86.2,1.73.22,3.44,2.53,3.45,4.03-3.48,12.81-30.51,14.5-31.51,1.25-.74,2.66-.5,4.01-.49.26,9.1-4.56,17.87-8.82,25.67-1.53,2.8-7.58,10.41-7.99,12.05-1.82,7.28,11.13-.1,13.32-1.72,17.22-12.75,13.41-36.92,8.5-55ZM80.79,593.03h20.5c2.26,0,10.57,1.98,13.28,2.72,4.21,1.15,10.22,4.77,13.74,5.28,1.85.26,2.17-1.19,1.47-1.98-.12-.13-1.68-.26-2.47-.99-14.12-13.14-40.85-11.03-58.52-7.53,11.72,11.08,24.38,21.25,41.54,20.55,2.07-.08,13.81-2.3,14.45-3.06.22-.26-.12-2.15,0-2.97-14.48-3.89-28.67-9.58-44.01-9.02v-3ZM187.79,652.02c3.91-4.95-15.79-1.96-17.23-1.71-15.81,2.7-31.82,9.86-48.27,9.72-.87-.12-.6,1.86-.49,1.99,1.23,1.45,16.22,7.83,18.99,8.53,9.03,2.26,16.49,1.77,25.45-.56,1.37-.36,18.53-6.09,15.55-8.94-7.51,2.91-14.22,5.62-22.45,6.04-2.18.11-14.78-.24-15.55-1.05-.2-.21.13-2.18,0-2.99,8.32.56,16.49-.71,24.44-3.07,2.38-.7,18.9-7.12,19.56-7.95ZM191.79,653.03c-1.09-1.09-3.08.9-1.99,1.99s3.08-.9,1.99-1.99ZM188.79,656.03c-.59-.59-7.49,3.74-5.99,4.99,1.18.99,7.42-3.56,5.99-4.99Z"/>
      <path class="cls-1" d="M715.79,636.03c4.35-3.23,9.08-6.56,13.21-10.05,3.91-3.31,25.36-22.52,25.65-25.62.19-2.11-8.94-7.91-11.2-10.45-15.15-17.11-19.08-52.74-13.42-74.14,3.09-11.71,19.4,6.74,22.74,10.79,12.95,15.66,19.13,37.3,16.03,57.48,10.79-13.56,21.42-28.68,29.37-44.12,1.46-2.84,5.23-9.72,5.63-12.38.33-2.17-.31-1.23-1.51-1.47-42.13-8.15-44.7-48.24-39.36-84.39,1.47-9.95,2.17-19.39,12.37-8.66,12.38,13.03,27.92,35.9,32.77,53.23l3.71,21.77,10.98-33.59c-12.72-30.23-10.56-63.82,7.81-91.13,2.45-3.64,12.11-17.28,16.53-16.15,5.35,1.37,2.25,16.14,2.8,21.27,2.74,25.46,16.84,42.05-.27,67.93-4.35,6.57-15.31,12.37-17.29,15.72-2.42,4.09-2.43,18.43-4.54,23.95.65.74,11.19-7.92,12.67-8.82,12.44-7.53,33.77-15.7,47.94-19.08,1.9-.45,1.23.05,1.38,1.38,1.44,12.19-2.92,11.84-8.83,20.19-12.34,17.44-23.06,45.47-47.63,47.37-6.37.49-14,0-18.46-4.35-2.51-2.45-1.83.9-2.56,2.29-8.34,15.87-17.55,31.3-28.51,45.54,8.47-.52,16.97-2.6,25.54-2.55,9.77.06,25.07,1.6,34.83,3.17,2.01.32,6.54.83,7.73,2.27,5.57,6.75-6.92,7.65-10.8,9.41-8.51,3.85-15.98,12.35-24,17-18.44,10.7-36.41,9-52.67-4.74l-36.63,34.44c-.44,2.36,1.06,1.21,2.45,1.51,21.65,4.64,44.72,11.76,66.81,9.12,3.6,1.74,5.16,5.44,1.7,8.33-1.36,1.14-3.24.95-4.19,1.6-23.21,15.81-46.85,27.48-74.12,9.76-5.71-3.71-9.87-9.95-14.99-13.71-12.98,8.11-26.49,15.53-40.7,21.34-5.16,2.11-30.62,11.54-34.33,10.45-.84-.25-1.89-1.39-1.63-2.41.42-2.02,32.09-15.65,36.88-18.13,9.27-4.81,18.37-10.15,27.1-15.88-26.96-15.56-26.43-46.69-15.75-72.76,1.9-4.63,4.36-11.04,10.22-5.68,2.66,2.43,10.82,14.81,13.36,18.63,3.93,5.91,15.18,23.44,15.18,29.82v14.5ZM840.78,386.03c-2.38-.55-1.61.41-2.22,1.3-11.97,17.46-16.48,38.06-14.75,59.18.18,2.19,3.35,17.82,3.99,18.52,1.62,1.77,1.7-.33,1.98-1.5,4.69-20.17,3.65-41.94,5.48-62.54l2.54-.48c4.11,19.61,1.27,41.16-4.01,60.5,1.53,1.57,7.47-7.07,8.19-8.3,12.23-20.78.22-44.61-1.21-66.69ZM772.77,442.04c-1.01-.07-1.4-.44-2.03.56-1.36,2.15-2.84,15.53-3,18.88-1.17,25.35,8.46,47.98,34.05,55.54-9.15-14.01-17.71-28.97-22.26-45.23-.72-2.57-4.78-16-1.22-16.76,1.76-.13,2.49,1.5,3.23,2.75,4.64,7.77,8.88,24.82,12.77,34.23,3.04,7.36,6.99,14.42,9.5,22.01,2.78.63,2.17-1.39,1.97-3.48-1.52-15.72-6.35-28.31-14.18-41.82-5.49-9.46-12.87-17.59-18.82-26.69ZM876.79,480.03c-24.11,7.36-53.59,19.29-58.99,46.99,1.81,1.79,10.83-8.55,12.52-9.97,4.86-4.05,25.25-20.1,30.02-20.99,2.74-.51,3.39.28,1.48,2.48-2.77,3.2-12.43,9.06-16.5,12.5-7.02,5.95-13.46,12.57-20.52,18.49-.42,2.26.99,1.38,2.48,1.49,11.79.89,22.34-10.39,28.92-19.09l20.58-31.91ZM744.21,529.61c-2.06-2.3-3.55-6.15-7.41-5.59-2.7,18.53-1.3,40.76,10.16,56.33,1.19,1.62,10.3,11.2,11.82,9.67-5.65-12.11-12.77-24.99-13.86-38.62-.16-1.99-.71-11.37,3.84-8.37,1.78,1.18,8.32,36.24,12.04,40.99,1.46,1.4,1.81-.08,1.98-1.48.96-7.48-1.61-20.79-3.97-28.05-3.05-9.42-8.09-17.59-14.62-24.88ZM708.79,636.02c1.45-11.83-2.45-22.06-8.58-31.91-1.69-2.71-14.15-19.48-15.9-19.09-8.1,17.19-8.83,45.63,9.82,56.15,2.33,1.31,10.73,6.23,11.61,1.22.17-.99-9.4-13.82-10.95-16.87-3.36-6.58-6.4-14.04-6.99-21.5,1.36.16,3.11-.33,4.33-.05,1.63.38,9.39,25.26,13.83,30.37.89,1.03.96,2.1,2.83,1.66ZM802.29,591.03c5.95-.51,12.48.37,18.5,0v3c-7.59.05-15.79,1.51-23.21,3.3-2.55.61-20.13,5.85-20.79,6.72-2.48,3.26,10.92,4.93,12.45,5.03,19.95,1.37,30.45-8.66,44.54-20.55-19.96-2.83-45.08-5.66-60.99,9.01-.21,1.47-.1,1.8,1.43,1.44,4.07-.96,8.93-3.77,13.12-4.89,4.35-1.16,10.59-2.69,14.94-3.06ZM780.79,659.04c-5.36-.52-10.93-1.23-16.21-2.3-13-2.64-31.97-9.33-44.47-9.66-3.01-.08-3.8,1.22-6.32,1.96,12.69,8.91,29.44,13.16,44.99,12.99.28,2,.19,1.65-1.24,2.26-4.49,1.91-22.62.86-27.75-.77-2.18-.69-13.16-7.28-14-6.49-.08,2.76,3.94,4.32,5.98,5.51,18.82,11.08,41.99,10.52,59.02-3.51Z"/>
      <path class="cls-1" d="M617.77,244.04c-.12-.11-2.1-.37-1.99.5-.26,17.34.35,34.7.05,52.04-.31,18.13-1.36,36.79-2.08,54.92-.25,6.14,1.05,15.55.01,21.01-.29,1.51-1.13,2.97-2.69,3.39-10.11,2.71-5.33-18.28-5.24-23.32.57-34.33.92-68.82-.08-103-.38-12.8-.62-25.58-1.33-38.33.15-3.57,5.8-5.64,8.24-4.08.61.39,2.38,9.45,3.09,11.4,10.14,27.76,31.45,55.53,42.55,83.49l2.48,1.97c-.65-13.18-1.16-26.31-1.04-39.54.11-12.55,1.7-25.25,1.09-37.99-.21-4.33-3.56-16.19-1.06-18.98,1.48-1.64,4.68-1.73,6.44-.41,2.19,1.65,3.41,14.8,3.62,18.39,1.12,19.32-1.26,38.77-1.08,58.08.26,29.21,3.49,58.7,5.08,87.91.12,2.2.73,7.61-1.67,8.41-3.39,1.13-6.4-.01-7.14-3.58-3.23-15.46-.65-34.04-4.45-49.55l-42.79-82.72Z"/>
      <path class="cls-1" d="M426.21,276.45c-2.22,1.96-4.63,3.74-7.09,5.41-2.96,2.01-7.14,1.67-6.36,6.62.24,1.55,5.47,8.72,6.52,11.55,7.73,20.8,2.59,45.64,9.74,64.26,4.45,11.61,5.56,1.46,12.25,2.7,9.23,1.7-3.71,18.28-13.87,11.92-2.43-1.52-6.32-8.79-7.33-11.67-7.24-20.52-.56-52.9-12.86-70.14-4.84-6.78-10.78-8.95-15.39-.56-1.09,26.95-1.8,53.97-2.03,80.98-3.83,6.03-8.44,4.17-9.04-2.96-2.24-26.32,1.76-59.1,2.08-86,.25-21.27.93-45.11-1.04-66.05-.87-9.28-6.66-1.32-11.01-3.97-4.46-2.71-1.56-7.47,2.72-9.31,41.38-17.84,92.54,31.89,52.7,67.21ZM391.94,216.17c-1.82,1.14-1.19,24.29-1.18,28.4,0,2.58,1.06,5.06,1.09,7.91.06,6.21-3.1,24.38.44,28.55,2.82,3.33,14.87-3.07,18.18-4.83,37.52-19.97,19.37-61.92-18.53-60.03Z"/>
      <path class="cls-1" d="M564.21,460.42c9.61-13.82,9.72-19.79,16.39-34.07,3.81-8.15,11.35-12.67,16.6-19.4,2.07-2.65,6.91-13.02,7.55-13.45,3.06-2.01,4.47,7.99,5.55,10.51,7.47,17.44,31.73,44.87,34.28,60.77.53,3.32-.87,5.26-.7,7.64,2.54,36.34,4.31,67.47,2.81,104.11-.33,8.01,4.34,8.54-8.37,9.54-17.49,1.38-35.54-1.37-53-2.08-4.12-.17-21.41,1.02-23.04-.96-4.09-4.92-2.08-19.88-2.46-26.54-1.38-24.54-4.98-52.67-3.08-76.99.65-8.26,2.9-12.52,7.45-19.07ZM605.78,408.03c-1.43-.34-1.65.23-2.52,1-4.02,3.54-14.05,14.99-16.49,19.48l-12.97,32.52,62.99,3c3.69-4.18-30.27-47.28-31.01-55.99ZM567.29,578.03c4.77,1.47,16.82-1.09,22.5,0v-37c13.32-2.37,26.99-2.14,28.03,14.46.52,8.29-2.68,16.25-2.03,24.54h24.5c1.1,0,1.43-2.44,1.55-3.45,1.65-14.05.45-38.24,0-53.09s-1.21-32.71-3.17-46.83c-.3-2.15-1.01-4.27-1.01-6.5-14.06-3.62-28.94-1.84-43.41-2.09-12.89-.22-29.52-7.36-31.47,10.45-2.53,23.14,1.99,52.34,3.05,75.97.28,6.2-1.05,15.5-.04,21.04.17.91.62,2.23,1.5,2.5ZM594.79,548.53c-1.44,8.85,1.07,21.23,0,30.5,2.8-1.06,13.48,1.76,14.55.05.96-1.54,2.74-20.78,2.5-23.6-.36-4.3-1.48-7.91-6.02-8.95-3.2-.73-10.38-1.98-11.03,2.01Z"/>
      <path class="cls-1" d="M337.44,210.4c12.63,7.75,16.69,37.49,17.39,51.09,1.5,29.14-5,77.44,3.68,103.32,1.49,4.46,7.95,12.65,5.38,15.81-8.35,10.25-16.27-19.32-16.98-24.2-3.14-21.59.05-45.49-1.12-67.38-6.42,2.18-27.46-.06-30.44,6.05-4.88,10,1.17,33.8-2.6,45.4-1.78,11.23,3.02,26.44,1.01,37.01-.68,3.6-4.84,4.8-7.57,2.62-2.48-1.98-1.17-10.09-1.41-13.58-2.54-36.54-.52-88.39,5.28-124.74,2.02-12.66,8.42-43.03,27.38-31.4ZM328.5,217.16c-5.98,1.71-9.81,28.42-10.58,34.49-.6,4.71-3.08,27.62-1.22,29.97.65.83,1.63,1.27,2.66,1.42l24.8-2.15c1.3-.34,1.43-1.22,1.64-2.36.78-4.22.31-16.19-.01-20.99-.77-11.68-3.9-28.32-11.58-37.42-1.61-1.91-2.73-3.81-5.71-2.96Z"/>
      <path class="cls-1" d="M476.79,86.53c-.08-.49-1.07-2.39-1.69-2.54-2.71-.65-13.3-.18-16.86-.01-2.97.14-15.48,1.06-16.53,2.71l.08,87.84c.02,3.04-5.18,3.05-7.34,2.54-1.4-.34-1.62-4.26-1.71-5.49-1.83-26.65.29-56.94.09-84.08-.2-26.07-3.36-53.92-1.09-80.01.63-7.17,5.51-9.66,9.02-2.92v65.99c.33,2.82,1.04,5.69,4.47,5.54,8.32-1.43,19.13.08,26.99-1.12,1.54-.24,3.01-.73,4.08-1.92l1.52-69.48c.94-4.91,6.2-4.41,8.45-.5l-.46,166.49c-1.04,9.01-9.02,4.89-9.02,2.98v-86Z"/>
      <path class="cls-1" d="M359.79,496.03c-4.51-2.23-8.24-.05-12.46.04-3.06.07-22.54-1.23-22.54,2.46v89.5c0,.42-7.44,1.84-8.04-.67-.93-3.93.14-14.89.08-19.87-.6-47.62-.38-96.03-.99-144-.05-3.53-2.37-6.05.5-9.42,1.6-1.88,4.69-2.59,6.47-.56.8.91,1.89,15.04,2.03,17.98.76,16.38-1.93,36.45-.09,52.09.12,1.01.46,3.45,1.55,3.45h22c.29,0,1.72-.9,2.96-1.04,2.99-.35,8.16,1.36,9.34-2.66l.27-66.73c.15-5.77,7.88-6.45,8.9-1.04l-.92,166.02c-.36,3.37-3.18,6.81-6.6,4.51-.43-.29-2.46-2.38-2.46-2.56v-87.5Z"/>
      <path class="cls-1" d="M464.03,379.79c-2.52-2.56-2.09-17.17-2.25-21.25-1.33-34.29-.39-69.47-1.95-104.05-1.82-15.39,1.25-31.28,2.12-46.8,2.11-6.43,23.5.2,28.16,2.52,46.87,23.29,25.78,125.36-1.35,158.29-4.04,4.91-18.28,17.85-24.74,11.29ZM471.03,216.27c-1.01,1.02-2.14,10.06-2.28,12.22-1.75,27.65,1.4,55.5,2.08,83,.43,17.36-2.02,39.61-.09,56.09.87,7.41,7.34-.94,10.02-4.08,24.39-28.64,44.46-117.66,8.97-142.91-3.55-2.52-15.15-7.89-18.7-4.32Z"/>
      <path class="cls-1" d="M462.02,585.8c-4.47-4.59-3.11-49.17-3.27-58.31-.07-3.98.13-7.92.05-11.97-.66-34.51-4.52-68.45,1.13-102.85,1.15-3.68,16.3-.88,19.67.06,57.29,16,34.94,127.37,6.17,161.77-3.75,4.48-17.87,17.33-23.74,11.3ZM481.41,565.66c21.68-30.19,41.43-116.03,4.71-140.46-3.21-2.14-13.43-6.42-16.66-4.25-2.11,1.42-3.52,15.24-3.72,18.54-1.36,23.07,1.55,46.06,2.08,69,.46,19.74-2.46,46.49.99,65.04.26,1.39-.96,2.93,1.48,2.52s9.44-8.06,11.11-10.38Z"/>
      <path class="cls-1" d="M289.41,432.4c-10.83-15.45-32.37-6.76-40.15,7.6-21.81,40.25,27.09,54.97,45.54,80.53,21.05,29.18,6.35,68.93-33.24,63.24-20.21-2.91-24.58-28.38-22.76-45.26.62-5.75,6.19-7.36,8.51-3.49,1.1,1.83,1.07,20.38,2.45,25.55,3.52,13.26,13.18,16.28,26.09,14.01,8.85-1.56,17.38-10.3,18.69-19.31,7.32-50.16-83.77-57.36-54.11-118.11,16.17-33.13,60.55-28.53,63.41,10.33.23,3.1.45,16.33-2.66,17.41-10.31,3.6-6.13-10.8-6.51-16.25-.35-5.09-2.3-12.06-5.25-16.26Z"/>
      <path class="cls-1" d="M293.65,240.88c-1.03.64-6.62.4-7.42-.79-.73-1.08-.8-8.49-1.74-11.26-3.84-11.36-13.16-11.97-20.67-3.28-19.9,23.02-18.95,100.12-10.3,128.26,4.79,15.6,18.03,30.06,27.77,8.21,3.26-7.32,8.5-27.92,3.56-34.53-3.37-4.52-13.94.25-19.39-1.62-3.18-1.09-3.37-6.04-.22-7.9,1.46-.86,12.63-2.03,15.05-2.03,6.33-.01,11.28,1.11,13.72,7.37,10.59,27.21-17.94,86.38-42.64,47.64-18.44-28.93-16.55-117.27,1.6-146.24,8.21-13.1,24.21-22.31,35.82-7.18,2.83,3.69,9.01,20.76,4.86,23.35Z"/>
      <path class="cls-1" d="M540.93,292.17l1.3,79.92c1.47,2.18,30.89.63,35.78.14,5.45-.08,6.9,7.1,2.49,9.1-12.52.12-27.92,2.1-40.23.73-8.12-.9-8.02-6.27-8.52-13.49-.84-12.15.09-27.34,0-40-.19-25.13-3.89-92.2,2.51-112.57,2.09-6.66,4.35-7.43,11-8,10.15-.87,31.16-.72,41.01,1.06,4.96.9,4.95,8.04-.2,8.75-11.86.51-26.15-2.36-37.83-.83-8.66,1.13-6.09,17.91-6.46,24.54-.11,1.95-.95,3.84-1.03,5.97-.22,5.85-1,26.61.24,30.84,1.93,6.55,21.7-1.82,20.84,7.15-.72,7.57-16.05,2.65-20.9,6.69Z"/>
      <path class="cls-1" d="M428.29,579.03c.26,0,.95-.75,1.81-.7,6.99.36,7.68,8.72-.8,9.72-7.23.85-31.04,1-37.96-.08-3.81-.6-6.41-3.57-6.58-7.42,1.27-41.67-2.43-83.41-1.02-125.06.3-8.87.49-23.52,2.28-31.72.32-1.45,2.19-6.7,3.02-7.48,3.47-3.28,28.2-2.56,34.3-2.3,2.51.1,16.79.98,17.51,1.48,1.25.88,1.17,3.59.93,5.02-1.11,6.62-14.77,2.61-19.45,2.5-5.79-.13-18.04-.9-23.02.06-3.13.61-3.54,3.07-4.25,5.75-1.79,6.85-2.1,21.09-2.32,28.68-.14,4.82-.82,26.26,1.52,28.57,3.41,3.37,23.85-3.5,18.86,7.74-2.02,4.55-16.88.3-19.43,3.87-1.62,2.27-1.03,24.22-.95,28.9.04,2.37,1.06,4.56,1.08,6.92.12,15.3-1.36,30.39-.04,45.54,11.47.23,23.02-.31,34.5,0Z"/>
      <path class="cls-1" d="M511.02,166.8c4.32,4.29,36.12-3.07,39.86,1.63,7.87,9.88-15.14,7.06-19.55,8.64-5.57-.36-27.54,1.26-29.34-4.74-1.9-6.35-1.23-17.9-1.24-24.84-.1-38.09-1.85-77.78,0-116,.27-5.66.87-16.44,2.51-21.49,1.17-3.59,3.09-6.28,7.09-6.91,5.71-.9,38.57-.99,43.73.16s6.71,7.19,2.01,8.58c-3.34.99-15.46.35-19.84.24-6.2-.15-21.08-4.33-23.98,2.94-1.53,3.83-2.28,15.77-2.52,20.48-.62,12.47.4,25.37.2,37.88,1.89,5.51,16.68-1.76,19.34,3.66,5.95,12.16-17.14,3.47-19.3,10.71.7,9.51-2.06,76,1.03,79.07Z"/>
      <path class="cls-1" d="M356.29,6.03h62c2.3,0,3.37,8,0,8h-24c-1.21,0-5.25,3.48-4.55,5.45,1.13,25.33-3.03,50.82.09,76.01-2.25,22.43,2.86,50.33,0,72.09-.85,6.49-8.64,6.01-9.09,0,.71-37.07-1.35-74.03-1-111.09.07-7.59,1.05-16.35,1.09-23.91.04-6.64,2.31-17.06-5.81-18.33-6.34-.99-28.51,5.96-18.74-8.22Z"/>
      <path class="cls-1" d="M301.7,699.95c.99-2.48,2.44-8.81-.56-9.78-2.56-.83-5.86,1.44-4.22-3.51.99-2.99,12.4-.08,12.76.49.41.65-1.57,13.8-2.08,15.19-1.75,4.8-13.45,1.9-17.1.49-17.68-6.83-12.33-34.28,8.79-33.87,2.86.06,15.99,2.77,10.53,6.62-2.24,1.58-6.01-1.12-8.61-1.46-19.33-2.5-19.99,27.85.49,25.84Z"/>
      <path class="cls-1" d="M504.11,711.72c-7.06-8.32-5.78-27.97,6.41-30.46,16.5-3.38,24.14,8.8,21.04,24.04-2.29,11.25-20.55,14.56-27.45,6.42ZM524.41,707.65c8.75-13.76-7.38-31.27-16.62-18.12-3.11,4.43-2.98,13.39.15,17.85,3.91,5.57,12.7,6.19,16.46.28Z"/>
      <path class="cls-1" d="M463.79,684.53c.22-.75,1.55-1.54,2.52-1.54,4.72.02,3.37,11.05,3.48,14.04,2.98-.5,13.11,1.09,14.59-.94,1.2-1.65-1.69-10.08-.59-13.07h6.01s1,34.01,1,34.01h-6.01v-15.01h-15v16c-1.43.26-6,.03-6-1.5v-32Z"/>
      <path class="cls-1" d="M565.75,676.07c.11,9.08,7.76,28.68-2.21,34.27-5.24,2.94-16.74,3.08-19.68-3.09-1.25-2.62-4.92-27.07-3.97-28.13.15-.17,4.11-1.04,4.32-.99,2.86.68,2.84,21.59,5.16,25.81,3.07,5.58,12.72,4.19,13.45-3.41.54-5.61-3.6-20-2.91-22.93.48-2.03,4.25-1.71,5.84-1.53Z"/>
      <path class="cls-1" d="M327.66,674.15c3.26,3.74-10.03,29.06,3.72,30.85,11.87,1.55,9.16-21.43,11.42-28.98,1.88-.07,4.15-.45,4.85,1.64.63,1.91-1.77,20.29-2.54,23.18-2.25,8.47-10.05,11.02-18.05,8.41-13.44-4.39-4.92-26.08-4.26-36.24.98.28,4.6.83,4.86,1.13Z"/>
      <path class="cls-1" d="M625.79,666.03c1.4,7.07-8.29,5.4-12.97,7.03-.04,13.86,5.7,6.45,14.97,6.97,2.44,7.34-10.49,4.99-11.87,7.12-1.21,1.88,1.23,7.42.87,9.88,1.1,1.1,18.16-5.81,15.99,1.49-.44,1.48-18.05,4.46-20.99,4.52l-5.87-32.44c.47-1.87,18.95-5.51,19.88-4.56Z"/>
      <path class="cls-1" d="M378.8,680.03c.52.51.17,4.3-1.65,4.9-2.34.76-10.83-2.26-12.3-.84-.32.31-1.08,7.58-1.06,8.94l12.44.99c2.88,8.79-8.6,2.55-13.44,4.01l-1,9.42c4.72,4.24,16.27-2.57,15.01,6.58-.7.72-18.82-.58-20.07-1.43s-1.03-2.7-.97-4.02c.43-9.69,3.15-20.73,4.08-30.52,2.62,1.14,18.28,1.31,18.96,1.98Z"/>
      <path class="cls-1" d="M594.63,676.88c-1.23.76-13.43-1.28-11.73,5.44,1.64,6.46,22.49,2.39,17.44,18.76-1.77,5.73-15.56,9.27-19.6,6.5-1.46-1-1.42-4.08.01-5.12,1.03-.75,15.61,3.17,14.09-5.91-1.18-7.03-17.67-2.18-17.89-14-.15-8.38,12.09-13.68,17.88-10.06,1.5.94.35,4.05-.2,4.39Z"/>
      <path class="cls-1" d="M394.04,687.27c-5.66,5.57,7.69,9.3,10.28,11.73,5.63,5.28,3.79,15.35-4.27,16.79-3.46.62-15.24,1.46-15.07-3.42.21-6,6.35-1.16,8.76-.76,2.56.42,7.29-1.7,7.93-4.28,1.16-4.63-9.85-7.58-12.31-10.37-4.83-5.48-1.86-14.13,5.13-15.71,3.49-.79,12.9-.64,12.36,4.28-.61,5.56-8.34-2.65-12.82,1.75Z"/>
      <path class="cls-1" d="M429.79,716.53c-.57,1.9-5.02,2.43-5.85-.15s-.26-12.43-.19-15.89c.05-2.56,2.1-10.49-.06-12.35-1.28-1.09-15.56,2.37-7.27-5.88,6.21,2.42,17.3-.86,22.74.91,2.09.68,1.69,2.99,1.64,4.85-2,.16-11-.8-11,1.5,0,5.44,1.09,23.37,0,27Z"/>
    </g>
  </g>
</svg>