<?xml version="1.0" encoding="UTF-8"?>
<svg id="Layer_2" data-name="Layer 2" xmlns="http://www.w3.org/2000/svg" viewBox="0 0 626.82 659.87">
  <defs>
    <style>
      .cls-1 {
        opacity: .54;
      }

      .cls-2 {
        fill: #fff;
      }

      .cls-3, .cls-4 {
        fill: none;
        stroke: #d3d3d3;
        stroke-linecap: round;
        stroke-miterlimit: 10;
        stroke-width: 5px;
      }

      .cls-5 {
        fill: #0f0f0f;
      }

      .cls-4 {
        stroke-dasharray: 12.04 12.04;
      }
    </style>
  </defs>
  <g id="Layer_1-2" data-name="Layer 1">
    <g>
      <path class="cls-5" d="M590.12,523.15l-236.67,126.85c-24.58,13.17-55.5,13.17-80.08,0l-236.67-126.85C13.9,510.93,0,489.19,0,465.77V2.5h626.82v463.27c0,23.42-13.9,45.16-36.7,57.38Z"/>
      <g class="cls-1">
        <g>
          <line class="cls-3" x1="608.52" y1="10.8" x2="608.52" y2="16.8"/>
          <path class="cls-4" d="M608.52,28.85v430.18c0,17.61-10.4,34.26-27.14,43.45l-236.67,129.91c-8.92,4.89-19.15,7.48-29.6,7.48s-20.69-2.59-29.6-7.48L48.84,502.48c-16.74-9.19-27.14-25.84-27.14-43.45V14.52"/>
          <line class="cls-3" x1="21.7" y1="8.5" x2="21.7" y2="2.5"/>
        </g>
      </g>
      <g>
        <path class="cls-2" d="M138.06,142.5c-8.07,9.44-14.6,20.36-19.65,31.7,2.76.73,5.6,1.29,8.24,2.43,15.54,6.73,16.77,26.06,15.33,40.78-.2,2.08-1.06,9.73-1.79,11.12-.85,1.63-2.92,1.05-4.22.22-8.54-10.54-17.41-21.01-20.66-34.6l-1.38-8.99-6.02,18.32c6.05,14.84,6.17,31.61-1.19,46.02-1.49,2.92-7.79,12.52-10.43,13.69-6.25,2.76-3.44-6.76-3.7-10.41-.5-7.16-4.05-14.58-4.47-21.9-.68-11.63,5.1-19.83,14.45-25.93l2.93-14.18c-7.13,6.33-16.02,10.38-24.96,13.48-2.83.98-11.02,3.86-13.5,3.95-1.8.07-3.38-.92-2.84-2.86.48-1.74,4.76-3.3,6.32-4.66,12.74-11.08,16.43-38.76,40.74-31.23.75.23.63,1.39,1.26,1.68h.83s15.72-26.93,15.72-26.93c-2.52.04-5.05,1-7.55,1.14-5.81.34-13.28.01-19.1-.59-2.32-.24-10.32-.93-11.24-2.8-1.72-3.52,3.28-3.34,5.34-4.22,8.51-3.65,14.15-12.4,24.01-13.59,7.08-.85,13.17.66,18.61,5.24.65.55.34,1.68,1.42,1.33,6.39-7.29,13.55-13.83,21.06-19.91-8.94-1.25-17.79-4.73-26.72-5.82-1.8-.22-4.96-.59-6.66-.63-1.89-.05-7.05,2.07-7.59-.85-.14-.76-.1-1.84.3-2.52.85-1.42,15.88-9.58,18.25-10.37,12.14-4.06,26.89.63,33.71,11.45l.69-.02c14.78-8.58,30.2-16.5,46-23.05,7.54-3.13,15.58-6.66,23.64-7.76l.34,1.44-62.32,31.4,6.18,5.59c6.63,7.96,7.34,18.12,4.87,27.91-.35,1.38-3.89,11.25-4.41,11.57-.71.43-2.87.17-3.6-.42-7.3-10.67-18.87-21.81-15.96-35.95-4.47,3.17-8.87,6.67-12.91,10.37-1.32,1.21-9.81,9.44-10.09,10.12-.38.92,2.72,1.78,3.64,2.52,11.4,9.12,14,28.66,11.36,42.22-.48,2.46-.52,5.02-3.47,4.89-1.53-.07-8.28-6.35-9.53-7.87-3.12-3.79-9.31-15.17-9.31-19.87v-12.63ZM160.3,96.15c-7.7-3.1-13.72-3.37-21.5-.32-.67.26-8.09,3.59-6.91,4.59l35.07,6.17c5.6-1.05-6.5-5.2-7.85-5.61-4.82-1.48-9.81-2.53-14.88-2.24-.68-2.11,1.77-2.14,3.63-2.27,6.33-.44,12.88.99,18.43,4.08.87.49.96,1.65,1.23,1.55.39-.55,1.14-.52.48-1.14-3-2.77-3.73-2.42-7.06-3.95-.44-.2-.52-.82-.63-.87ZM184.64,141.94c1.36.98,2.91-5.2,3.11-6.14,2.51-11.78.04-25.75-13.78-27.52-1,.99,4.31,8.16,5.14,9.72,1.22,2.28,4.99,10.13,4.34,12.35-.38,1.3-2.16,1.27-2.69.03l-7.42-16.99-1.61-.07c-1.52,11.71,7.06,19.74,12.91,28.62ZM133.57,129.61c-.27-.32-7.05-1.69-8.12-1.72-7.78-.22-17.32,5.12-22.48,10.68-.51.55-1.03.8-.82,1.7,8.55.3,18.42,1.78,26.67-1.1,2.56-.89,7.31-3.3,7.84-6.18-8.26,3.43-17.94,6.67-26.93,5.02-.71-.13-1.76-.15-.85-1.09.43-.44,7.95-.96,9.65-1.3,2.93-.58,6.46-1.55,9.3-2.48.9-.29,5.54-1.62,5.73-1.85.05-.06.05-1.6,0-1.67ZM141.99,142.51c-1.29,9.98,2.49,21.66,8.99,29.44,1.41,1.69,5.18,6.47,5.62,2.29,1.14-10.69-.56-26.01-9.3-33.4-.5-.42-3.24-2.66-3.63-2.26,2.77,6.37,6.57,12.59,7.6,19.61.28,1.88,1.2,6.78-1.14,7.32-1.11-.26-4.87-16.13-5.89-18.81-.51-1.33-.99-3.44-2.25-4.2ZM106.63,173.36c.11-2.59-3.55-1.44-5.17-.95-5.76,1.73-11.02,8.38-14.36,13.13l-9.08,14.76c12.23-3.48,26.52-9.42,31.52-22.06.2-.51,2.11-5.09.19-4.3-.83.34-6.65,6.37-8.14,7.58-3.36,2.73-10.86,8.6-14.57,10.12-.73.3-1.93.81-1.7-.58l21.32-17.69ZM117.3,181.79c.7,15.8,9.41,28.82,19.36,40.39,1.73.01,2.13-15.88,1.98-17.69-.9-11.23-7.45-21.35-18.54-24.39,2.14,4.53,5.23,8.56,7.39,13.09,1.32,2.78,7.87,19.46,6.08,21.14l-2.15-.1c-4.3-10.09-7.16-21.88-12.73-31.34-.43-.73.1-1.41-1.39-1.11ZM98.77,253.05c.29-.25,3.35-5.75,3.78-6.61,5.16-10.39,6.63-23.67,3.15-34.81-.26-.83-.19-1.77-1.03-2.34-1.23-.16-1.13,2.84-1.29,3.74-1.95,10.57-2.04,21.45-2.35,32.17-.64-.08-1.25.32-1.73-.33-.34-.46-1.08-8.14-1.1-9.46-.1-7.9,1.69-15.57,2.83-23.31-.51-.56-2.95,2.19-3.3,2.71-7.32,10.92-1.37,25.56-.08,37.43-.3.91.75,1.14,1.13.81ZM101.3,210.97v.56c.36-.19.36-.37,0-.56Z"/>
        <path class="cls-2" d="M471.95,109.4l19.99,20.17c1.16.35,3.61-2.48,4.96-3.35,5.38-3.47,11.62-4.05,17.82-2.64,8.39,1.91,14.07,9.59,21.76,13.03,2.25,1.01,6.8.75,5.54,4.42-.23.67-.74.73-1.28.97-1.84.85-12.09,2.02-14.65,2.18-7.32.46-14.95.1-22.17-.83l15.78,26.59c2.03.6,1.32-1.11,3.04-1.62,20.12-5.93,25.85,13.15,34.83,25.19.89,1.19,5.46,5.66,5.6,6.17.55,1.96.12,4.21.24,6.22-8.7-1.7-17.16-4.91-25.06-8.88l-10.28-6.27c1.58,3.2,1.45,11.08,2.8,13.61.3.57,7.66,5.23,9.78,8.32,9.57,13.98,1.87,23.89.39,37.88-.25,2.39,1.01,11.27-.98,11.95-3.13,1.08-8.04-5.86-9.64-8.19-10.92-15.89-11.66-34.24-5.13-52.06l-5.64-17.7c-.7.06-1.17-.51-.96.72,1.54,9.24-7.42,24.99-12.83,32.34-1.67,2.27-6.76,8.78-8.68,10.39s-3.45.82-4.2-1.34c-.85-2.48-1.76-10.85-1.94-13.78-1.03-17.13,2.98-37.7,23.56-39,1.79-1.65-16.24-29.97-19.64-32.54,2.09,12.72-2.94,27.41-12.34,36.2-6.39,5.98-8.47,7.01-9.96-2.4-2.2-13.97.26-31.83,12.24-40.77,1.32-.99,3.04-.48,1.92-2.56-.76-1.41-5.18-5.65-6.65-7.1-4.56-4.5-10.32-8.76-15.51-12.54,2.89,14.17-8.61,24.91-15.7,35.65-3.4,3.01-4.83-1.63-5.9-4.23-4.74-11.58-5.73-24.73,2.55-34.9l6.14-5.2-61.14-32.01c-.12-.72-.1-1.23.53-1.69,1.74-1.25,20.29,6.7,23.4,8.06,15.21,6.68,29.94,14.83,44.36,23.04,1.43.21,3.59-3.26,4.91-4.44,10.53-9.36,23.6-10.24,36.03-4.01,1.74.87,10.91,6.33,11.73,7.35.76.94,1.45,2.91.27,3.73-.65.46-13.19.47-15.96.87-7.9,1.15-15.83,4.65-23.91,4.99ZM500.56,99.29c.86-.81-3.55-3.19-4.1-3.47-8.56-4.19-18.11-3.49-26.59.55l-4.09,3.48c4.25-1.34,7.49-3.52,12.07-3.92,2.13-.18,7.62-.35,9.53,0,.96.18,1.58.6,1.4,1.68-7.26.29-17.26,1.91-23.39,6.07-3.2,2.17.52,2.44,2.83,2.3,10.42-.64,21.7-6.19,32.35-6.68ZM448.36,141.38c5.1-8.24,14.12-16.63,12.94-27.24-.06-.56-.27-1.95-.87-1.93-.64.03-3.63,6.01-4.13,7.08-1.04,2.24-3.2,9.71-4.28,10.87-.82.89-2.09.81-2.47-.38-.53-1.69,1.95-8.03,2.82-9.93.99-2.16,6.77-10.44,6.7-11.29-.27-3.36-7.94,1.79-9.3,3.08-6.45,6.08-6.62,20.78-3.13,28.38.38.83.56,1.59,1.71,1.36ZM530.86,139.13c.21-.94-.3-1.14-.85-1.67-7.15-6.96-15.94-11.69-26.23-9.98-.65.11-5.38,1.58-4.34,2.66.35.36,8.3,2.77,9.53,3.1,4.97,1.3,10.02,2.19,15.15,2.52,2.39,2.01-7.5,1.74-8.16,1.7-6.52-.36-12.64-2.54-18.78-4.51,1.02,2.51,4.05,4.09,6.5,5,8.19,3.05,18.59,1.59,27.17,1.17ZM488.78,138.02c-1.06-.24-1.33.6-1.96,1.12-10.34,8.53-11.53,24.06-9.82,36.47.56.65,4.28-3.35,4.77-3.92,5.86-6.79,9.27-16.62,9.81-25.54.04-.63.44-6.34-1.11-4.76l-6.75,23c-4.08,2.69-1.08-10.3-.71-11.66,1.4-5.08,4.37-9.64,5.77-14.71ZM539.61,176.42c-3.13-2.9-6.77-5.64-11.28-5.3-.84.06-1.63-.43-1.39.84,4.36,4.08,8.73,8.25,13.34,12.05,1.75,1.45,4.96,3.11,6.5,4.59,3.67,3.5-1.22,1.54-3.18.38-7.42-4.4-13.98-10.37-20.32-16.16-.9-.08-.95-.13-.77.76,2.89,14.55,20.07,22.35,33.04,25.61l-10.19-15.9c-2.02-2.17-3.58-4.85-5.75-6.86ZM512.9,178.98c-18.46,6.37-19.97,25.2-16.83,42.08.6.7,3.94-3.57,4.47-4.22,7.06-8.64,14.09-21.3,15.16-32.54.06-.64.34-5.11-1.11-3.64l-12.3,32.21h-2.31c-.76-5.56,3.99-16.84,6.53-22.04.72-1.48,6.85-11.36,6.38-11.85ZM527.78,189.64v.56c.36-.19.36-.37,0-.56ZM532.55,244.08c-.89-11.12-.32-22.49-2.77-33.43-.2-.89.16-1.83-.88-2.47-6.15,14.18-2.83,32.71,7.01,44.32.91-14.32,9.2-31.57-3.92-42.65.03,3.31,1.69,6.73,2.19,9.87.96,6.01,1.48,16.91.46,22.82-.27,1.55-.46,1.74-2.09,1.54Z"/>
        <path class="cls-2" d="M138.62,375.1c.81-6.79,6.02-16.32,10.65-21.34,10.02-10.89,11.7-6.75,12.38,6.16.69,13-2.76,29.73-15.14,36.27-.91,1.32,8.5,9.84,9.95,11.14,2.23,2.01,5.13,4.61,7.46,6.44.53.41,4.72,3.45,5,3.13-1.87-8.52,2.49-16.19,6.94-23.08,1.87-2.9,6.03-9.09,8.21-11.43,4.44-4.74,6.22,1.96,7.56,5.9,4.61,13.54,3.83,30.2-10.37,37.3l36.47,19.09c.14.57-.44,1.21-.92,1.35-3.45,1.01-25.08-8.15-29.4-10.32-2.04-1.03-11.99-7.4-12.72-7.51-.55-.09-6.3,6.27-8.07,7.46-16.02,10.82-30.73,3.54-44.85-6.14-2.4-6.36,4.69-3.59,8.14-3.6,10.28-.04,22-5.08,32.25-6.49l-20.59-19.3c-3.53,1.46-5.62,4.12-9.71,5.27-15.97,4.5-20.24-4.52-31.6-11.05-1.78-1.02-8.04-2.69-8.3-3.04-2.62-3.56,2.66-4.29,4.9-4.63,10.71-1.66,22.78-2.81,33.31-.07l-12.44-19.26-3.84-8.23c-1.42-.43-1.21,1.36-2.1,1.67-23.48,8.13-28.74-20.19-41.95-31.4-2.11-1.79-6.97-2.98-4.8-6.37,1.14-1.78,8.65,1.14,10.57,1.72,7.44,2.23,14.78,5.03,21.63,8.68l8.24,5.5-2.52-13.47c-11.4-6.95-16.2-16.45-14.16-29.86.89-5.88,3.4-11.54,3.77-17.56.14-2.22-.76-8.42-.47-9.41,1.47-4.99,6.83.98,8.32,2.7,13.23,15.31,15.3,37.09,7.85,55.55l5.64,17.66c1.67-1,.95-3.97,1.27-5.74,2.65-14.61,11.84-26.66,21.42-37.5,1.7-1.09,3.31-.82,3.98,1.13.78,2.27,1.75,9.48,1.94,12.09,1.02,14.18-.51,32.75-15.33,39.09-2.73,1.17-4.86,1.32-7.4,2.13-.71.23-.92-.42-.86.87s3.95,8.07,4.88,9.72c4.18,7.48,9.12,14.98,14.79,21.41.34-4.01-.47-8.71,0-12.63ZM98.77,277.19l-1.11.28c-.86,14.07-9.14,30.96,3.92,41.8-2.01-10.06-3.86-20.76-2.73-31.08.19-1.76.28-3.09,2.18-2.59.77,10.54.69,21.1,2.4,31.55l1.52,4.92c5.6-15.36,2.64-31.46-6.18-44.88ZM137.49,308.61c-.99-.2-1.38.51-1.97,1.11-5.01,5.17-11.3,15.23-14,21.91-1.63,4.03-4.23,12.35-3.67,16.54.1.76.34,1.69,1.12.84l12.23-31.83c.55-1.74,2.74-1.84,2.94.11s-2.76,11.32-3.67,13.75c-1.29,3.47-3.28,7.4-5.03,10.68-.74,1.39-5.55,8.12-4.78,8.96,18.02-6.6,20.77-25.21,16.83-42.08ZM111.12,356.3c-2.75-14.94-19.19-22.51-32.54-25.81-.17.88.1,1.29.54,1.98,4.82,7.56,14.67,23.81,23.56,25.82.54.12,5.17.97,4.52-.59-.36-.85-10.06-9.17-11.51-10.37-2.54-2.1-6.49-4.33-8.69-6.46-1.26-1.22-1.94-2.36.26-1.95,1.52.28,11.27,7.26,13.17,8.72,2.49,1.92,4.72,4.44,7.07,6.39.51.42,3.25,2.66,3.63,2.26ZM142.55,377.91c-.37,3.25.27,7.06,0,10.38.8-.02,1.11-1.59,1.38-2.27,2.6-6.35,3.22-13.73,5.5-19.75.26-.69.71-1.11,1.27-1.55,2.83-.61.74,8.73.45,10-.49,2.24-1.35,4.67-2.16,6.82-1.3,3.48-3.23,6.73-4.76,10.11.68.69,4.71-3.21,5.33-3.92,6.81-7.66,8.25-19.58,7.6-29.49-.05-.77-.13-4.73-1.42-4.18-.96.41-5.3,5.59-6.13,6.78-2.92,4.16-6.5,12.06-7.06,17.07ZM186.87,388.29c-.55-.02-1.01-.06-1.55.18-.74.33-8.13,11.02-9,12.56-2.33,4.16-4.64,9.04-4.06,13.95.11.97.12,1.93,1.42,1.93,2.26-1.95,7.19-17.12,8.14-17.68.7-.42,1.49-.28,2.25-.27.15,5.1-2.56,10.03-4.95,14.41-.86,1.57-4.26,5.84-4.48,6.76-1.02,4.08,6.24-.05,7.47-.96,9.66-7.15,7.53-20.72,4.77-30.87ZM109.44,392.22h11.5c1.27,0,5.93,1.11,7.45,1.53,2.36.65,5.74,2.68,7.71,2.96,1.04.15,1.22-.67.83-1.11-.07-.08-.94-.14-1.39-.56-7.92-7.37-22.93-6.19-32.84-4.23,6.58,6.21,13.68,11.92,23.31,11.53,1.16-.05,7.75-1.29,8.11-1.72.12-.14-.07-1.21,0-1.67-8.13-2.18-16.09-5.38-24.69-5.06v-1.68ZM169.48,425.32c2.19-2.78-8.86-1.1-9.67-.96-8.87,1.51-17.86,5.53-27.09,5.46-.49-.06-.34,1.05-.28,1.12.69.81,9.1,4.4,10.65,4.78,5.07,1.27,9.26.99,14.28-.32.77-.2,10.4-3.42,8.73-5.02-4.22,1.63-7.98,3.15-12.6,3.39-1.23.06-8.29-.13-8.72-.59-.11-.12.07-1.22,0-1.68,4.67.32,9.26-.4,13.72-1.72,1.33-.39,10.61-4,10.98-4.46ZM171.72,425.89c-.61-.61-1.73.5-1.12,1.12s1.73-.5,1.12-1.12ZM170.04,427.57c-.33-.33-4.2,2.1-3.36,2.8.66.55,4.16-2,3.36-2.8Z"/>
        <path class="cls-2" d="M465.77,416.35c2.44-1.82,5.1-3.68,7.41-5.64,2.19-1.86,14.23-12.64,14.39-14.38.11-1.18-5.02-4.44-6.28-5.86-8.5-9.6-10.7-29.59-7.53-41.61,1.74-6.57,10.88,3.78,12.76,6.05,7.27,8.79,10.74,20.93,9,32.25,6.05-7.61,12.02-16.09,16.48-24.76.82-1.6,2.94-5.45,3.16-6.95.18-1.22-.17-.69-.85-.82-23.64-4.57-25.08-27.07-22.08-47.35.83-5.58,1.22-10.88,6.94-4.86,6.95,7.31,15.66,20.15,18.39,29.87l2.08,12.22,6.16-18.85c-7.14-16.96-5.92-35.81,4.38-51.14,1.37-2.04,6.8-9.7,9.28-9.06,3,.77,1.26,9.06,1.57,11.94,1.54,14.29,9.45,23.6-.15,38.12-2.44,3.69-8.59,6.94-9.7,8.82-1.36,2.29-1.36,10.34-2.55,13.44.36.41,6.28-4.45,7.11-4.95,6.98-4.23,18.95-8.81,26.9-10.7,1.07-.25.69.03.78.77.81,6.84-1.64,6.64-4.96,11.33-6.92,9.78-12.94,25.52-26.73,26.58-3.58.28-7.86,0-10.36-2.44-1.41-1.37-1.03.5-1.44,1.28-4.68,8.9-9.85,17.56-16,25.55,4.75-.29,9.52-1.46,14.33-1.43,5.48.03,14.07.9,19.54,1.78,1.13.18,3.67.46,4.34,1.27,3.13,3.79-3.88,4.29-6.06,5.28-4.78,2.16-8.96,6.93-13.47,9.54-10.35,6.01-20.43,5.05-29.56-2.66l-20.55,19.33c-.25,1.33.59.68,1.37.85,12.15,2.6,25.1,6.6,37.49,5.12,2.02.97,2.89,3.05.96,4.68-.76.64-1.82.53-2.35.9-13.02,8.87-26.29,15.42-41.59,5.48-3.2-2.08-5.54-5.58-8.41-7.69-7.28,4.55-14.87,8.72-22.84,11.97-2.89,1.18-17.18,6.47-19.27,5.86-.47-.14-1.06-.78-.92-1.35.24-1.13,18.01-8.78,20.69-10.18,5.2-2.7,10.31-5.7,15.21-8.91-15.13-8.73-14.83-26.2-8.84-40.83,1.06-2.6,2.44-6.2,5.73-3.19,1.49,1.36,6.07,8.31,7.5,10.45,2.21,3.32,8.52,13.15,8.52,16.73v8.14ZM535.91,276.06c-1.33-.31-.9.23-1.24.73-6.72,9.8-9.25,21.36-8.28,33.21.1,1.23,1.88,10,2.24,10.39.91.99.96-.19,1.11-.84,2.63-11.32,2.05-23.53,3.08-35.09l1.43-.27c2.3,11,.71,23.09-2.25,33.95.86.88,4.19-3.97,4.6-4.66,6.87-11.66.12-25.03-.68-37.42ZM497.75,307.49c-.57-.04-.78-.25-1.14.31-.76,1.21-1.59,8.71-1.68,10.6-.66,14.22,4.75,26.93,19.11,31.17-5.14-7.86-9.94-16.26-12.49-25.38-.4-1.44-2.68-8.98-.69-9.4.99-.08,1.4.84,1.81,1.54,2.61,4.36,4.98,13.93,7.16,19.21,1.71,4.13,3.92,8.09,5.33,12.35,1.56.35,1.22-.78,1.11-1.95-.85-8.82-3.56-15.89-7.96-23.47-3.08-5.31-7.22-9.87-10.56-14.98ZM556.11,328.81c-13.53,4.13-30.07,10.82-33.1,26.37,1.02,1,6.07-4.8,7.03-5.59,2.73-2.28,14.17-11.28,16.84-11.78,1.54-.29,1.9.15.83,1.39-1.56,1.79-6.97,5.09-9.26,7.02-3.94,3.34-7.55,7.06-11.51,10.38-.24,1.27.56.77,1.39.84,6.61.5,12.53-5.83,16.23-10.71l11.55-17.9ZM481.72,356.63c-1.15-1.29-1.99-3.45-4.16-3.13-1.52,10.4-.73,22.87,5.7,31.61.67.91,5.78,6.29,6.63,5.42-3.17-6.8-7.17-14.02-7.78-21.67-.09-1.12-.4-6.38,2.16-4.7,1,.66,4.67,20.34,6.75,23,.82.79,1.01-.05,1.11-.83.54-4.2-.91-11.66-2.23-15.74-1.71-5.29-4.54-9.87-8.2-13.96ZM461.84,416.34c.82-6.64-1.37-12.38-4.82-17.9-.95-1.52-7.94-10.93-8.92-10.71-4.54,9.64-4.95,25.6,5.51,31.51,1.31.74,6.02,3.5,6.51.69.1-.56-5.27-7.75-6.15-9.47-1.88-3.69-3.59-7.88-3.92-12.07.77.09,1.74-.19,2.43-.03.91.21,5.27,14.17,7.76,17.04.5.58.54,1.18,1.59.93ZM514.31,391.1c3.34-.28,7,.21,10.38,0v1.68c-4.26.03-8.86.85-13.02,1.85-1.43.34-11.3,3.28-11.67,3.77-1.39,1.83,6.13,2.76,6.99,2.82,11.19.77,17.09-4.86,24.99-11.53-11.2-1.59-25.3-3.18-34.22,5.06-.12.83-.06,1.01.8.81,2.29-.54,5.01-2.12,7.36-2.74s5.94-1.51,8.38-1.72ZM502.25,429.26c-3.01-.29-6.13-.69-9.09-1.29-7.3-1.48-17.94-5.23-24.95-5.42-1.69-.04-2.14.68-3.55,1.1,7.12,5,16.52,7.38,25.25,7.29.15,1.12.11.92-.69,1.27-2.52,1.07-12.69.48-15.57-.43-1.23-.39-7.39-4.09-7.86-3.64-.04,1.55,2.21,2.42,3.35,3.09,10.56,6.22,23.56,5.9,33.12-1.97Z"/>
        <path class="cls-2" d="M410.77,196.38c-.07-.06-1.18-.21-1.11.28-.14,9.73.19,19.47.03,29.2-.18,10.17-.76,20.64-1.17,30.82-.14,3.44.59,8.73,0,11.79-.16.85-.63,1.67-1.51,1.9-5.67,1.52-2.99-10.26-2.94-13.09.32-19.27.52-38.62-.05-57.8-.21-7.18-.35-14.35-.74-21.51.09-2,3.26-3.17,4.62-2.29.34.22,1.33,5.3,1.74,6.4,5.69,15.58,17.65,31.16,23.88,46.85l1.39,1.1c-.36-7.4-.65-14.76-.58-22.19.06-7.04.95-14.17.61-21.32-.12-2.43-2-9.09-.6-10.65.83-.92,2.63-.97,3.61-.23,1.23.92,1.92,8.3,2.03,10.32.63,10.84-.7,21.76-.61,32.59.15,16.39,1.96,32.94,2.85,49.33.07,1.24.41,4.27-.94,4.72-1.9.64-3.59,0-4.01-2.01-1.81-8.67-.37-19.1-2.49-27.81l-24.01-46.42Z"/>
        <path class="cls-2" d="M303.27,214.57c-1.24,1.1-2.6,2.1-3.98,3.04-1.66,1.13-4.01.94-3.57,3.72.14.87,3.07,4.89,3.66,6.48,4.34,11.67,1.45,25.61,5.46,36.06,2.5,6.51,3.12.82,6.87,1.51,5.18.96-2.08,10.26-7.78,6.69-1.36-.85-3.54-4.93-4.11-6.55-4.06-11.52-.31-29.69-7.22-39.36-2.72-3.81-6.05-5.02-8.64-.31-.61,15.12-1.01,30.28-1.14,45.44-2.15,3.38-4.73,2.34-5.07-1.66-1.26-14.77.99-33.17,1.17-48.26.14-11.93.52-25.31-.58-37.06-.49-5.21-3.74-.74-6.18-2.23s-.88-4.19,1.53-5.23c23.22-10.01,51.93,17.9,29.58,37.71ZM284.04,180.74c-1.02.64-.67,13.63-.66,15.94,0,1.45.6,2.84.61,4.44.03,3.48-1.74,13.68.25,16.02,1.58,1.87,8.35-1.72,10.2-2.71,21.05-11.2,10.87-34.74-10.4-33.69Z"/>
        <path class="cls-2" d="M380.71,317.8c5.39-7.75,5.45-11.1,9.2-19.12,2.14-4.57,6.37-7.11,9.32-10.89,1.16-1.49,3.88-7.31,4.24-7.55,1.72-1.13,2.51,4.49,3.11,5.9,4.19,9.79,17.81,25.18,19.24,34.1.3,1.87-.49,2.95-.39,4.29,1.42,20.39,2.42,37.86,1.58,58.42-.18,4.5,2.44,4.79-4.69,5.35-9.82.77-19.94-.77-29.74-1.17-2.31-.09-12.01.57-12.93-.54-2.29-2.76-1.17-11.15-1.38-14.9-.77-13.77-2.8-29.56-1.73-43.21.36-4.63,1.63-7.03,4.18-10.7ZM404.04,288.41c-.81-.19-.93.13-1.42.56-2.26,1.99-7.88,8.41-9.25,10.93l-7.28,18.25,35.35,1.68c2.07-2.35-16.99-26.53-17.4-31.42ZM382.44,383.8c2.68.83,9.44-.61,12.63,0v-20.76c7.48-1.33,15.15-1.2,15.73,8.11.29,4.65-1.5,9.12-1.14,13.77h13.75c.61,0,.8-1.37.87-1.94.93-7.89.25-21.46,0-29.79-.25-8.08-.68-18.35-1.78-26.28-.17-1.21-.56-2.4-.56-3.65-7.89-2.03-16.24-1.03-24.36-1.17-7.24-.13-16.56-4.13-17.66,5.87-1.42,12.98,1.12,29.37,1.71,42.63.16,3.48-.59,8.7-.02,11.81.09.51.35,1.25.84,1.4ZM397.87,367.25c-.81,4.97.6,11.92,0,17.12,1.57-.59,7.56.99,8.16.03.54-.86,1.54-11.66,1.4-13.25-.2-2.41-.83-4.44-3.38-5.02-1.79-.41-5.83-1.11-6.19,1.13Z"/>
        <path class="cls-2" d="M253.46,177.5c7.09,4.35,9.37,21.04,9.76,28.67.84,16.35-2.8,43.46,2.06,57.98.84,2.5,4.46,7.1,3.02,8.87-4.69,5.75-9.13-10.84-9.53-13.58-1.76-12.12.03-25.53-.63-37.81-3.6,1.22-15.41-.03-17.08,3.39-2.74,5.61.65,18.97-1.46,25.48-1,6.3,1.7,14.84.57,20.77-.38,2.02-2.71,2.69-4.25,1.47-1.39-1.11-.66-5.66-.79-7.62-1.42-20.51-.29-49.6,2.96-70,1.13-7.1,4.72-24.15,15.36-17.62ZM248.44,181.3c-3.36.96-5.51,15.95-5.94,19.36-.33,2.64-1.73,15.5-.69,16.82.37.46.91.71,1.49.8l13.92-1.21c.73-.19.8-.68.92-1.32.44-2.37.17-9.08,0-11.78-.43-6.56-2.19-15.89-6.5-21-.91-1.07-1.53-2.14-3.2-1.66Z"/>
        <path class="cls-2" d="M331.66,107.99c-.04-.27-.6-1.34-.95-1.42-1.52-.36-7.47-.1-9.46,0-1.67.08-8.68.6-9.27,1.52l.04,49.29c.01,1.71-2.91,1.71-4.12,1.42-.79-.19-.91-2.39-.96-3.08-1.03-14.95.16-31.95.05-47.18-.11-14.63-1.89-30.26-.61-44.9.35-4.02,3.09-5.42,5.06-1.64v37.03c.19,1.59.59,3.2,2.51,3.11,4.67-.8,10.74.05,15.15-.63.86-.13,1.69-.41,2.29-1.08l.85-38.99c.53-2.76,3.48-2.47,4.74-.28l-.26,93.43c-.59,5.05-5.06,2.74-5.06,1.67v-48.26Z"/>
        <path class="cls-2" d="M266,337.79c-2.53-1.25-4.63-.03-6.99.02-1.72.04-12.65-.69-12.65,1.38v50.22c0,.24-4.18,1.03-4.51-.38-.52-2.2.08-8.35.04-11.15-.34-26.72-.21-53.89-.56-80.8-.03-1.98-1.33-3.4.28-5.29.9-1.05,2.63-1.45,3.63-.31.45.51,1.06,8.44,1.14,10.09.42,9.19-1.08,20.45-.05,29.23.07.57.26,1.94.87,1.94h12.35c.16,0,.96-.5,1.66-.58,1.68-.2,4.58.76,5.24-1.49l.15-37.45c.09-3.24,4.42-3.62,5-.58l-.52,93.17c-.2,1.89-1.78,3.82-3.7,2.53-.24-.16-1.38-1.34-1.38-1.44v-49.1Z"/>
        <path class="cls-2" d="M324.49,272.56c-1.41-1.44-1.17-9.64-1.26-11.93-.75-19.24-.22-38.98-1.09-58.39-1.02-8.63.7-17.56,1.19-26.26,1.18-3.61,13.19.11,15.8,1.41,26.3,13.07,14.47,70.35-.76,88.83-2.27,2.75-10.26,10.02-13.88,6.34ZM328.42,180.8c-.57.57-1.2,5.64-1.28,6.86-.98,15.51.79,31.15,1.17,46.58.24,9.74-1.13,22.23-.05,31.47.49,4.16,4.12-.53,5.62-2.29,13.68-16.07,24.95-66.02,5.03-80.19-1.99-1.42-8.5-4.43-10.49-2.43Z"/>
        <path class="cls-2" d="M323.37,388.16c-2.51-2.58-1.74-27.59-1.84-32.72-.04-2.23.07-4.45.03-6.72-.37-19.36-2.54-38.41.63-57.72.64-2.07,9.15-.49,11.04.03,32.15,8.98,19.61,71.47,3.46,90.78-2.1,2.52-10.03,9.72-13.32,6.34ZM334.25,376.86c12.16-16.94,23.25-65.11,2.64-78.82-1.8-1.2-7.54-3.6-9.35-2.39-1.18.79-1.98,8.55-2.09,10.41-.77,12.95.87,25.85,1.17,38.72.26,11.08-1.38,26.09.56,36.5.15.78-.54,1.64.83,1.41s5.3-4.52,6.23-5.83Z"/>
        <path class="cls-2" d="M226.51,302.08c-6.08-8.67-18.17-3.79-22.53,4.26-12.24,22.59,15.2,30.85,25.55,45.19,11.81,16.37,3.56,38.68-18.65,35.49-11.34-1.63-13.79-15.93-12.77-25.4.35-3.23,3.47-4.13,4.78-1.96.62,1.03.6,11.44,1.37,14.34,1.98,7.44,7.4,9.14,14.64,7.86,4.97-.88,9.75-5.78,10.49-10.84,4.11-28.15-47.01-32.18-30.36-66.28,9.07-18.59,33.98-16.01,35.58,5.8.13,1.74.25,9.16-1.49,9.77-5.78,2.02-3.44-6.06-3.65-9.12-.2-2.86-1.29-6.77-2.94-9.12Z"/>
        <path class="cls-2" d="M228.88,194.61c-.58.36-3.71.23-4.17-.44-.41-.61-.45-4.77-.97-6.32-2.15-6.38-7.39-6.72-11.6-1.84-11.17,12.92-10.63,56.18-5.78,71.97,2.69,8.75,10.12,16.87,15.58,4.6,1.83-4.11,4.77-15.67,2-19.38-1.89-2.54-7.82.14-10.88-.91-1.78-.61-1.89-3.39-.12-4.43.82-.48,7.09-1.14,8.45-1.14,3.55,0,6.33.62,7.7,4.14,5.95,15.27-10.07,48.47-23.93,26.73-10.35-16.24-9.29-65.81.9-82.06,4.61-7.35,13.59-12.52,20.1-4.03,1.59,2.07,5.06,11.65,2.73,13.1Z"/>
        <path class="cls-2" d="M367.65,223.39l.73,44.85c.83,1.22,17.33.35,20.08.08,3.06-.04,3.87,3.98,1.4,5.11-7.03.07-15.66,1.18-22.58.41-4.56-.51-4.5-3.52-4.78-7.57-.47-6.82.05-15.34,0-22.44-.11-14.1-2.18-51.74,1.41-63.17,1.18-3.74,2.44-4.17,6.17-4.49,5.69-.49,17.48-.41,23.01.59,2.79.5,2.78,4.51-.11,4.91-6.66.29-14.67-1.32-21.23-.46-4.86.64-3.42,10.05-3.62,13.77-.06,1.1-.53,2.15-.58,3.35-.12,3.28-.56,14.93.14,17.31,1.08,3.68,12.18-1.02,11.7,4.01-.41,4.25-9,1.49-11.73,3.75Z"/>
        <path class="cls-2" d="M304.44,384.36c.15,0,.53-.42,1.02-.39,3.92.2,4.31,4.9-.45,5.46-4.06.48-17.42.56-21.3-.04-2.14-.33-3.6-2-3.69-4.16.71-23.39-1.36-46.8-.57-70.18.17-4.97.27-13.2,1.28-17.8.18-.81,1.23-3.76,1.69-4.2,1.95-1.84,15.82-1.44,19.25-1.29,1.41.06,9.42.55,9.83.83.7.49.66,2.01.52,2.82-.62,3.71-8.29,1.47-10.92,1.41-3.25-.07-10.13-.5-12.92.04-1.75.34-1.99,1.72-2.38,3.23-1.01,3.84-1.18,11.83-1.3,16.1-.08,2.71-.46,14.73.85,16.03,1.92,1.89,13.38-1.97,10.58,4.34-1.13,2.55-9.47.17-10.9,2.17-.91,1.27-.58,13.59-.53,16.22.02,1.33.6,2.56.61,3.88.07,8.58-.76,17.05-.02,25.56,6.44.13,12.92-.17,19.36,0Z"/>
        <path class="cls-2" d="M350.86,153.04c2.43,2.41,20.27-1.72,22.37.92,4.41,5.54-8.49,3.96-10.97,4.85-3.13-.2-15.46.71-16.46-2.66-1.07-3.56-.69-10.05-.7-13.94-.06-21.37-1.04-43.65,0-65.09.15-3.18.49-9.22,1.41-12.06.65-2.01,1.73-3.53,3.98-3.88,3.21-.51,21.64-.55,24.54.09s3.77,4.04,1.13,4.82c-1.87.55-8.68.2-11.13.14-3.48-.08-11.83-2.43-13.46,1.65-.86,2.15-1.28,8.85-1.41,11.49-.35,6.99.23,14.24.11,21.25,1.06,3.09,9.36-.99,10.85,2.05,3.34,6.82-9.62,1.95-10.83,6.01.39,5.33-1.16,42.65.58,44.37Z"/>
        <path class="cls-2" d="M264.04,62.82h34.79c1.29,0,1.89,4.49,0,4.49h-13.47c-.68,0-2.95,1.95-2.55,3.06.63,14.22-1.7,28.52.05,42.65-1.26,12.59,1.6,28.24,0,40.45-.48,3.64-4.85,3.37-5.1,0,.4-20.8-.76-41.54-.56-62.34.04-4.26.59-9.18.61-13.42.02-3.73,1.29-9.58-3.26-10.28-3.56-.55-16,3.34-10.51-4.61Z"/>
        <path class="cls-2" d="M233.4,452.21c.56-1.39,1.37-4.94-.31-5.49-1.44-.47-3.29.81-2.37-1.97.55-1.68,6.96-.04,7.16.27.23.36-.88,7.74-1.17,8.52-.98,2.69-7.55,1.06-9.6.27-9.92-3.83-6.92-19.24,4.93-19.01,1.61.03,8.97,1.55,5.91,3.71-1.26.89-3.37-.63-4.83-.82-10.85-1.4-11.22,15.63.28,14.5Z"/>
        <path class="cls-2" d="M346.98,458.82c-3.96-4.67-3.24-15.69,3.6-17.09,9.26-1.89,13.55,4.94,11.81,13.49-1.28,6.31-11.53,8.17-15.41,3.6ZM358.37,456.54c4.91-7.72-4.14-17.55-9.32-10.17-1.74,2.48-1.67,7.51.09,10.02,2.2,3.13,7.13,3.47,9.24.15Z"/>
        <path class="cls-2" d="M324.36,443.56c.12-.42.87-.86,1.41-.86,2.65,0,1.89,6.2,1.95,7.88,1.67-.28,7.36.61,8.19-.53.67-.93-.95-5.66-.33-7.33h3.37s.56,19.08.56,19.08h-3.37v-8.42h-8.42v8.98c-.8.15-3.37.02-3.37-.84v-17.96Z"/>
        <path class="cls-2" d="M381.57,438.82c.06,5.1,4.36,16.1-1.24,19.23-2.94,1.65-9.39,1.73-11.04-1.73-.7-1.47-2.76-15.19-2.23-15.78.08-.09,2.3-.58,2.43-.55,1.6.38,1.59,12.12,2.9,14.49,1.72,3.13,7.14,2.35,7.55-1.91.3-3.15-2.02-11.22-1.63-12.87.27-1.14,2.38-.96,3.28-.86Z"/>
        <path class="cls-2" d="M247.97,437.74c1.83,2.1-5.63,16.31,2.09,17.31,6.66.87,5.14-12.03,6.41-16.26,1.05-.04,2.33-.25,2.72.92.36,1.07-.99,11.38-1.43,13.01-1.26,4.75-5.64,6.19-10.13,4.72-7.54-2.46-2.76-14.63-2.39-20.33.55.16,2.58.46,2.73.63Z"/>
        <path class="cls-2" d="M415.27,433.18c.79,3.97-4.65,3.03-7.28,3.95-.02,7.78,3.2,3.62,8.4,3.91,1.37,4.12-5.89,2.8-6.66,4-.68,1.05.69,4.17.49,5.54.62.62,10.19-3.26,8.97.83-.25.83-10.13,2.5-11.78,2.53l-3.3-18.2c.27-1.05,10.63-3.09,11.15-2.56Z"/>
        <path class="cls-2" d="M276.67,441.04c.29.29.1,2.41-.93,2.75-1.31.43-6.08-1.27-6.9-.47-.18.18-.61,4.25-.59,5.02l6.98.55c1.62,4.93-4.83,1.43-7.54,2.25l-.56,5.29c2.65,2.38,9.13-1.44,8.42,3.69-.39.41-10.56-.33-11.26-.8s-.58-1.52-.55-2.26c.24-5.44,1.77-11.63,2.29-17.13,1.47.64,10.26.73,10.64,1.11Z"/>
        <path class="cls-2" d="M397.78,439.27c-.69.43-7.54-.72-6.58,3.05s12.62,1.34,9.79,10.53c-.99,3.22-8.73,5.2-11,3.65-.82-.56-.8-2.29,0-2.87.58-.42,8.76,1.78,7.9-3.32-.66-3.95-9.92-1.22-10.04-7.86-.09-4.7,6.78-7.68,10.03-5.65.84.53.2,2.27-.11,2.46Z"/>
        <path class="cls-2" d="M285.22,445.1c-3.18,3.12,4.32,5.22,5.77,6.58,3.16,2.96,2.13,8.61-2.39,9.42-1.94.35-8.55.82-8.46-1.92.12-3.37,3.56-.65,4.92-.43,1.44.23,4.09-.96,4.45-2.4.65-2.6-5.53-4.26-6.91-5.82-2.71-3.07-1.04-7.93,2.88-8.82,1.96-.44,7.24-.36,6.94,2.4-.34,3.12-4.68-1.49-7.19.98Z"/>
        <path class="cls-2" d="M305.28,461.52c-.32,1.07-2.82,1.36-3.28-.09s-.15-6.98-.11-8.92c.03-1.44,1.18-5.89-.04-6.93-.72-.61-8.73,1.33-4.08-3.3,3.49,1.36,9.71-.48,12.76.51,1.17.38.95,1.68.92,2.72-1.12.09-6.17-.45-6.17.84,0,3.05.61,13.11,0,15.15Z"/>
      </g>
    </g>
  </g>
</svg>